<svg width="109" height="86" viewBox="0 0 109 86" fill="none" xmlns="http://www.w3.org/2000/svg">
<g clip-path="url(#clip0_222_68)">
<path d="M43.8198 2.5H65.2791C87.6015 2.5 105.698 20.596 105.698 42.9185C105.698 65.2409 87.6015 83.3369 65.2791 83.3369H43.8198C21.4973 83.3369 3.40137 65.2409 3.40137 42.9185C3.40137 20.596 21.4973 2.5 43.8198 2.5Z" fill="#52037C" stroke="#7605B3" stroke-width="5"/>
<path d="M20.2168 41.1588C20.9879 41.1273 21.5544 40.9621 21.9164 40.6631C22.2783 40.3484 22.4593 39.9077 22.4593 39.3412C22.4593 38.9163 22.3806 38.0744 22.2232 36.8155C22.2075 36.6896 22.1603 36.2883 22.0816 35.6116C22.0029 34.9192 21.9636 34.2976 21.9636 33.7468C21.9636 32.4091 22.3727 31.3705 23.191 30.6309C24.0094 29.8755 25.1031 29.4979 26.4722 29.4979H28.1717V32.8026H27.2511C26.7476 32.8026 26.3856 32.9128 26.1653 33.1331C25.945 33.3534 25.8348 33.6917 25.8348 34.1481C25.8348 34.4943 25.8978 35.2811 26.0237 36.5086C26.1653 38.0351 26.2361 39.0343 26.2361 39.5064C26.2361 40.372 26.0237 41.088 25.5988 41.6545C25.1896 42.221 24.5601 42.583 23.7104 42.7404V42.7876C24.5601 42.9605 25.1896 43.3305 25.5988 43.897C26.0237 44.4476 26.2361 45.164 26.2361 46.0451C26.2361 46.5172 26.1653 47.5163 26.0237 49.0429C25.8978 50.2391 25.8348 51.018 25.8348 51.3798C25.8348 51.8361 25.945 52.1747 26.1653 52.3949C26.3856 52.6309 26.7476 52.7489 27.2511 52.7489H28.1717V56.0537H26.4722C25.1031 56.0537 24.0094 55.676 23.191 54.9206C22.3727 54.1811 21.9636 53.1343 21.9636 51.7811C21.9636 51.2305 22.0029 50.6167 22.0816 49.9399C22.1603 49.2476 22.2075 48.8382 22.2232 48.7125C22.3806 47.4537 22.4593 46.6116 22.4593 46.1867C22.4593 45.6515 22.2783 45.2266 21.9164 44.912C21.5544 44.5816 20.9879 44.4004 20.2168 44.3691V41.1588ZM30.6272 42.764C30.6272 41.1273 30.9813 39.6717 31.6895 38.397C32.3976 37.1066 33.3812 36.1073 34.6401 35.3992C35.9148 34.6752 37.3547 34.3133 38.9598 34.3133C40.9269 34.3133 42.6108 34.8326 44.0112 35.8713C45.4121 36.9099 46.3481 38.3262 46.8202 40.1202H42.3826C42.0521 39.4278 41.58 38.9006 40.9663 38.5386C40.3683 38.1767 39.6838 37.9957 38.9126 37.9957C37.6694 37.9957 36.6623 38.4285 35.8912 39.294C35.1201 40.1595 34.7345 41.3162 34.7345 42.764C34.7345 44.2116 35.1201 45.3682 35.8912 46.2339C36.6623 47.0996 37.6694 47.5322 38.9126 47.5322C39.6838 47.5322 40.3683 47.3511 40.9663 46.9893C41.58 46.6275 42.0521 46.1 42.3826 45.4077H46.8202C46.3481 47.2017 45.4121 48.618 44.0112 49.6567C42.6108 50.6794 40.9269 51.191 38.9598 51.191C37.3547 51.191 35.9148 50.8369 34.6401 50.1288C33.3812 49.4047 32.3976 48.4056 31.6895 47.1309C30.9813 45.8562 30.6272 44.4004 30.6272 42.764ZM55.288 51.2382C54.076 51.2382 52.9902 51.0416 52.0305 50.6481C51.0704 50.2545 50.2992 49.6725 49.7172 48.9013C49.1507 48.1301 48.8516 47.2017 48.8202 46.1159H53.1164C53.179 46.7296 53.3915 47.2017 53.7537 47.5322C54.1155 47.8468 54.5876 48.0043 55.17 48.0043C55.7679 48.0043 56.24 47.8704 56.5863 47.603C56.9322 47.3198 57.1056 46.9343 57.1056 46.4464C57.1056 46.0373 56.964 45.6987 56.6807 45.4313C56.4129 45.164 56.0747 44.9434 55.6657 44.7704C55.2722 44.5974 54.7056 44.4004 53.9662 44.1803C52.8958 43.8498 52.0224 43.5193 51.346 43.1888C50.6692 42.8584 50.0868 42.3705 49.5992 41.7253C49.1112 41.0801 48.8674 40.2382 48.8674 39.1996C48.8674 37.6574 49.4258 36.4535 50.5434 35.588C51.6606 34.7067 53.1164 34.2661 54.9104 34.2661C56.7357 34.2661 58.2069 34.7067 59.3245 35.588C60.4417 36.4535 61.0395 37.6652 61.1185 39.2232H56.7516C56.7198 38.6881 56.5232 38.2711 56.1614 37.9721C55.7992 37.6574 55.3353 37.5 54.7687 37.5C54.2807 37.5 53.8872 37.6338 53.5885 37.9013C53.2893 38.1531 53.14 38.5229 53.14 39.0107C53.14 39.5458 53.3915 39.9628 53.8953 40.2618C54.3988 40.5608 55.1855 40.8834 56.2559 41.2296C57.3258 41.5916 58.1915 41.9378 58.8524 42.2682C59.5288 42.5987 60.1112 43.0785 60.5992 43.7082C61.0868 44.3378 61.331 45.1481 61.331 46.1395C61.331 47.0837 61.0868 47.9412 60.5992 48.7125C60.1271 49.4837 59.4344 50.0974 58.5219 50.5537C57.6091 51.0099 56.531 51.2382 55.288 51.2382ZM69.8108 51.2382C68.5988 51.2382 67.5129 51.0416 66.5533 50.6481C65.5932 50.2545 64.8219 49.6725 64.24 48.9013C63.6734 48.1301 63.3743 47.2017 63.343 46.1159H67.6391C67.7018 46.7296 67.9142 47.2017 68.2765 47.5322C68.6383 47.8468 69.1104 48.0043 69.6928 48.0043C70.2906 48.0043 70.7627 47.8704 71.1091 47.603C71.455 47.3198 71.6284 46.9343 71.6284 46.4464C71.6284 46.0373 71.4868 45.6987 71.2035 45.4313C70.9357 45.164 70.5975 44.9434 70.1885 44.7704C69.7949 44.5974 69.2284 44.4004 68.4889 44.1803C67.4185 43.8498 66.5451 43.5193 65.8687 43.1888C65.1919 42.8584 64.6095 42.3705 64.1219 41.7253C63.634 41.0801 63.3902 40.2382 63.3902 39.1996C63.3902 37.6574 63.9486 36.4535 65.0662 35.588C66.1833 34.7067 67.6391 34.2661 69.4331 34.2661C71.2584 34.2661 72.7297 34.7067 73.8473 35.588C74.9644 36.4535 75.5623 37.6652 75.6413 39.2232H71.2743C71.2425 38.6881 71.046 38.2711 70.6842 37.9721C70.3219 37.6574 69.858 37.5 69.2915 37.5C68.8035 37.5 68.4099 37.6338 68.1112 37.9013C67.8121 38.1531 67.6627 38.5229 67.6627 39.0107C67.6627 39.5458 67.9142 39.9628 68.4181 40.2618C68.9215 40.5608 69.7082 40.8834 70.7786 41.2296C71.8486 41.5916 72.7142 41.9378 73.3752 42.2682C74.0516 42.5987 74.634 43.0785 75.122 43.7082C75.6095 44.3378 75.8537 45.1481 75.8537 46.1395C75.8537 47.0837 75.6095 47.9412 75.122 48.7125C74.6498 49.4837 73.9571 50.0974 73.0447 50.5537C72.1318 51.0099 71.0537 51.2382 69.8108 51.2382ZM86.5052 44.3691C85.734 44.4004 85.1674 44.5816 84.8056 44.912C84.4434 45.2266 84.2627 45.6515 84.2627 46.1867C84.2627 46.6116 84.3413 47.4537 84.4988 48.7125C84.5142 48.8382 84.5614 49.2476 84.6404 49.9399C84.7189 50.6167 84.7584 51.2305 84.7584 51.7811C84.7584 53.1343 84.349 54.1811 83.531 54.9206C82.7125 55.676 81.6189 56.0537 80.2498 56.0537H78.5503V52.7489H79.4709C79.9743 52.7489 80.3361 52.6309 80.5567 52.3949C80.7769 52.1747 80.8872 51.8361 80.8872 51.3798C80.8872 51.018 80.8241 50.2391 80.6983 49.0429C80.5567 47.5163 80.4859 46.5172 80.4859 46.0451C80.4859 45.164 80.6902 44.4476 81.0996 43.897C81.5245 43.3305 82.1619 42.9605 83.0117 42.7876V42.7404C82.1619 42.583 81.5245 42.221 81.0996 41.6545C80.6902 41.088 80.4859 40.372 80.4859 39.5064C80.4859 39.0343 80.5567 38.0351 80.6983 36.5086C80.8241 35.2811 80.8872 34.4943 80.8872 34.1481C80.8872 33.6917 80.7769 33.3534 80.5567 33.1331C80.3361 32.9128 79.9743 32.8026 79.4709 32.8026H78.5503V29.4979H80.2498C81.6189 29.4979 82.7125 29.8755 83.531 30.6309C84.349 31.3705 84.7584 32.4091 84.7584 33.7468C84.7584 34.2976 84.7189 34.9192 84.6404 35.6116C84.5614 36.2883 84.5142 36.6896 84.4988 36.8155C84.3413 38.0744 84.2627 38.9163 84.2627 39.3412C84.2627 39.9077 84.4434 40.3484 84.8056 40.6631C85.1674 40.9621 85.734 41.1273 86.5052 41.1588V44.3691Z" fill="#BFBFBF"/>
</g>
<defs>
<clipPath id="clip0_222_68">
<rect width="107.296" height="85.8369" fill="white" transform="translate(0.901367)"/>
</clipPath>
</defs>
</svg>
