<svg width="108" height="86" viewBox="0 0 108 86" fill="none" xmlns="http://www.w3.org/2000/svg">
<g clip-path="url(#clip0_222_58)">
<path d="M43.6226 2.5H65.0818C87.4043 2.5 105.5 20.596 105.5 42.9185C105.5 65.2409 87.4043 83.3369 65.0818 83.3369H43.6226C21.3001 83.3369 3.2041 65.2409 3.2041 42.9185C3.2041 20.596 21.3001 2.5 43.6226 2.5Z" fill="#52037C" stroke="#7605B3" stroke-width="5"/>
<path d="M59.3594 47.9257C62.1246 47.9257 64.3662 45.6837 64.3662 42.9184C64.3662 40.1531 62.1246 37.9113 59.3594 37.9113C56.5937 37.9113 54.3521 40.1531 54.3521 42.9184C54.3521 45.6837 56.5937 47.9257 59.3594 47.9257Z" fill="#BFBFBF"/>
<path fill-rule="evenodd" clip-rule="evenodd" d="M49.3448 57.9399C52.1104 57.9399 54.3521 55.6983 54.3521 52.9326C54.3521 52.1777 54.3521 50.509 54.3521 47.9258C52.1027 47.9258 50.4336 47.9258 49.3448 47.9258C46.5795 47.9258 44.3379 50.1674 44.3379 52.9326C44.3379 55.6983 46.5795 57.9399 49.3448 57.9399Z" fill="#BFBFBF"/>
<path fill-rule="evenodd" clip-rule="evenodd" d="M49.3448 47.9257C50.2666 47.9257 51.9357 47.9257 54.3521 47.9257V37.9113C51.9357 37.9113 50.2666 37.9113 49.3448 37.9113C46.5795 37.9113 44.3379 40.1531 44.3379 42.9184C44.3379 45.6837 46.5795 47.9257 49.3448 47.9257Z" fill="#BFBFBF"/>
<path fill-rule="evenodd" clip-rule="evenodd" d="M49.3448 37.9113C50.2666 37.9113 51.9357 37.9113 54.3521 37.9113V27.897C51.9357 27.897 50.2666 27.897 49.3448 27.897C46.5795 27.897 44.3379 30.1387 44.3379 32.9041C44.3379 35.6695 46.5795 37.9113 49.3448 37.9113Z" fill="#BFBFBF"/>
<path fill-rule="evenodd" clip-rule="evenodd" d="M59.3594 37.9113H54.3521V27.897H59.3594C62.1246 27.897 64.3662 30.1387 64.3662 32.9041C64.3662 35.6695 62.1246 37.9113 59.3594 37.9113Z" fill="#BFBFBF"/>
</g>
<defs>
<clipPath id="clip0_222_58">
<rect width="107.296" height="85.8369" fill="white" transform="translate(0.704102)"/>
</clipPath>
</defs>
</svg>
