<svg width="108" height="86" viewBox="0 0 108 86" fill="none" xmlns="http://www.w3.org/2000/svg">
<g clip-path="url(#clip0_222_65)">
<path d="M42.9185 2.5H64.3777C86.7002 2.5 104.796 20.596 104.796 42.9185C104.796 65.2409 86.7002 83.3369 64.3777 83.3369H42.9185C20.596 83.3369 2.5 65.2409 2.5 42.9185C2.5 20.596 20.596 2.5 42.9185 2.5Z" fill="#52037C" stroke="#7605B3" stroke-width="5"/>
<path d="M14.721 48.0279L9.9292 42.8111L14.721 37.5944H19.7962L14.9807 42.8111L19.7962 48.0279H14.721ZM37.4004 34.5021V51.0729H33.364V44.2511H27.085V51.0729H23.0485V34.5021H27.085V40.9936H33.364V34.5021H37.4004ZM52.2348 34.5021V37.736H47.8442V51.0729H43.8077V37.736H39.4174V34.5021H52.2348ZM73.0271 34.5021V51.0729H68.9906V41.1352L65.2846 51.0729H62.027L58.2974 41.1116V51.0729H54.261V34.5021H59.0292L63.6794 45.9742L68.2824 34.5021H73.0271ZM79.9661 47.9571H85.2537V51.0729H75.9296V34.5021H79.9661V47.9571ZM87.2026 37.5944H92.2777L97.0695 42.8111L92.2777 48.0279H87.2026L92.018 42.8111L87.2026 37.5944Z" fill="#BFBFBF"/>
</g>
<defs>
<clipPath id="clip0_222_65">
<rect width="107.296" height="85.8369" fill="white"/>
</clipPath>
</defs>
</svg>
