<svg width="117" height="94" viewBox="0 0 117 94" fill="none" xmlns="http://www.w3.org/2000/svg">
<g clip-path="url(#clip0_222_71)" filter="url(#filter0_d_222_71)">
<path d="M47.7207 2.5H69.1799C91.5024 2.5 109.598 20.596 109.598 42.9185C109.598 65.2409 91.5024 83.3369 69.1799 83.3369H47.7207C25.3982 83.3369 7.30225 65.2409 7.30225 42.9185C7.30225 20.596 25.3982 2.5 47.7207 2.5Z" fill="#52037C" stroke="#7605B3" stroke-width="5"/>
<path d="M34.418 41.1588C35.1891 41.1273 35.7556 40.9621 36.1175 40.6631C36.4795 40.3484 36.6605 39.9077 36.6605 39.3412C36.6605 38.9163 36.5818 38.0744 36.4244 36.8155C36.4087 36.6896 36.3614 36.2883 36.2828 35.6116C36.2041 34.9192 36.1647 34.2976 36.1647 33.7468C36.1647 32.4091 36.5739 31.3705 37.3922 30.6309C38.2105 29.8755 39.3042 29.4979 40.6733 29.4979H42.3729V32.8026H41.4523C40.9487 32.8026 40.5868 32.9128 40.3665 33.1331C40.1462 33.3534 40.036 33.6917 40.036 34.1481C40.036 34.4943 40.099 35.2811 40.2248 36.5086C40.3665 38.0351 40.4373 39.0343 40.4373 39.5064C40.4373 40.372 40.2248 41.088 39.7999 41.6545C39.3908 42.221 38.7613 42.583 37.9115 42.7404V42.7876C38.7613 42.9605 39.3908 43.3305 39.7999 43.897C40.2248 44.4476 40.4373 45.164 40.4373 46.0451C40.4373 46.5172 40.3665 47.5163 40.2248 49.0429C40.099 50.2391 40.036 51.018 40.036 51.3798C40.036 51.8361 40.1462 52.1747 40.3665 52.3949C40.5868 52.6309 40.9487 52.7489 41.4523 52.7489H42.3729V56.0537H40.6733C39.3042 56.0537 38.2105 55.676 37.3922 54.9206C36.5739 54.1811 36.1647 53.1343 36.1647 51.7811C36.1647 51.2305 36.2041 50.6167 36.2828 49.9399C36.3614 49.2476 36.4087 48.8382 36.4244 48.7125C36.5818 47.4537 36.6605 46.6116 36.6605 46.1867C36.6605 45.6515 36.4795 45.2266 36.1175 44.912C35.7556 44.5816 35.1891 44.4004 34.418 44.3691V41.1588ZM55.8991 34.5022V45.7854C55.8991 47.5322 55.4034 48.8777 54.412 49.8219C53.4364 50.7661 52.1145 51.2382 50.4463 51.2382C48.6995 51.2382 47.2991 50.7425 46.2447 49.7511C45.1903 48.7597 44.6632 47.3511 44.6632 45.5258H48.6759C48.6759 46.218 48.8175 46.7455 49.1008 47.1073C49.3841 47.4537 49.7935 47.6266 50.3283 47.6266C50.8163 47.6266 51.1939 47.4691 51.4613 47.1545C51.7291 46.8399 51.8626 46.3833 51.8626 45.7854V34.5022H55.8991ZM65.1553 51.2382C63.9437 51.2382 62.8579 51.0416 61.8978 50.6481C60.9377 50.2545 60.1669 49.6725 59.5845 48.9013C59.018 48.1301 58.7188 47.2017 58.6875 46.1159H62.9836C63.0467 46.7296 63.2592 47.2017 63.621 47.5322C63.9828 47.8468 64.4549 48.0043 65.0373 48.0043C65.6351 48.0043 66.1072 47.8704 66.4536 47.603C66.7999 47.3198 66.9729 46.9343 66.9729 46.4464C66.9729 46.0373 66.8313 45.6987 66.548 45.4313C66.2806 45.164 65.942 44.9434 65.533 44.7704C65.1394 44.5974 64.5729 44.4004 63.8334 44.1803C62.7635 43.8498 61.8901 43.5193 61.2133 43.1888C60.5364 42.8584 59.9544 42.3705 59.4665 41.7253C58.9785 41.0801 58.7347 40.2382 58.7347 39.1996C58.7347 37.6574 59.2935 36.4535 60.4107 35.588C61.5278 34.7067 62.9836 34.2661 64.7776 34.2661C66.6029 34.2661 68.0746 34.7067 69.1918 35.588C70.309 36.4535 70.9072 37.6652 70.9858 39.2232H66.6188C66.5875 38.6881 66.3905 38.2711 66.0287 37.9721C65.6669 37.6574 65.2025 37.5 64.636 37.5C64.148 37.5 63.7549 37.6338 63.4557 37.9013C63.1566 38.1531 63.0072 38.5229 63.0072 39.0107C63.0072 39.5458 63.2592 39.9628 63.7626 40.2618C64.266 40.5608 65.0532 40.8834 66.1231 41.2296C67.1931 41.5916 68.0587 41.9378 68.7197 42.2682C69.3965 42.5987 69.9785 43.0785 70.4665 43.7082C70.9545 44.3378 71.1982 45.1481 71.1982 46.1395C71.1982 47.0837 70.9545 47.9412 70.4665 48.7125C69.9944 49.4837 69.3021 50.0974 68.3892 50.5537C67.4763 51.0099 66.3987 51.2382 65.1553 51.2382ZM81.8497 44.3691C81.0785 44.4004 80.512 44.5816 80.1502 44.912C79.7884 45.2266 79.6072 45.6515 79.6072 46.1867C79.6072 46.6116 79.6858 47.4537 79.8433 48.7125C79.8592 48.8382 79.9064 49.2476 79.9849 49.9399C80.0635 50.6167 80.103 51.2305 80.103 51.7811C80.103 53.1343 79.6939 54.1811 78.8755 54.9206C78.057 55.676 76.9635 56.0537 75.5944 56.0537H73.8948V52.7489H74.8154C75.3188 52.7489 75.6811 52.6309 75.9012 52.3949C76.1214 52.1747 76.2317 51.8361 76.2317 51.3798C76.2317 51.018 76.1686 50.2391 76.0429 49.0429C75.9012 47.5163 75.8304 46.5172 75.8304 46.0451C75.8304 45.164 76.0351 44.4476 76.4441 43.897C76.869 43.3305 77.5064 42.9605 78.3562 42.7876V42.7404C77.5064 42.583 76.869 42.221 76.4441 41.6545C76.0351 41.088 75.8304 40.372 75.8304 39.5064C75.8304 39.0343 75.9012 38.0351 76.0429 36.5086C76.1686 35.2811 76.2317 34.4943 76.2317 34.1481C76.2317 33.6917 76.1214 33.3534 75.9012 33.1331C75.6811 32.9128 75.3188 32.8026 74.8154 32.8026H73.8948V29.4979H75.5944C76.9635 29.4979 78.057 29.8755 78.8755 30.6309C79.6939 31.3705 80.103 32.4091 80.103 33.7468C80.103 34.2976 80.0635 34.9192 79.9849 35.6116C79.9064 36.2883 79.8592 36.6896 79.8433 36.8155C79.6858 38.0744 79.6072 38.9163 79.6072 39.3412C79.6072 39.9077 79.7884 40.3484 80.1502 40.6631C80.512 40.9621 81.0785 41.1273 81.8497 41.1588V44.3691Z" fill="#BFBFBF"/>
</g>
<defs>
<filter id="filter0_d_222_71" x="0.802246" y="0" width="115.296" height="93.8369" filterUnits="userSpaceOnUse" color-interpolation-filters="sRGB">
<feFlood flood-opacity="0" result="BackgroundImageFix"/>
<feColorMatrix in="SourceAlpha" type="matrix" values="0 0 0 0 0 0 0 0 0 0 0 0 0 0 0 0 0 0 127 0" result="hardAlpha"/>
<feOffset dy="4"/>
<feGaussianBlur stdDeviation="2"/>
<feComposite in2="hardAlpha" operator="out"/>
<feColorMatrix type="matrix" values="0 0 0 0 0 0 0 0 0 0 0 0 0 0 0 0 0 0 0.25 0"/>
<feBlend mode="normal" in2="BackgroundImageFix" result="effect1_dropShadow_222_71"/>
<feBlend mode="normal" in="SourceGraphic" in2="effect1_dropShadow_222_71" result="shape"/>
</filter>
<clipPath id="clip0_222_71">
<rect width="107.296" height="85.8369" fill="white" transform="translate(4.80225)"/>
</clipPath>
</defs>
</svg>
