<svg width="24" height="24" viewBox="0 0 24 24" fill="none" xmlns="http://www.w3.org/2000/svg">
<g clip-path="url(#clip0_135_452)">
<path d="M12 0C9.62663 0 7.30655 0.703788 5.33316 2.02236C3.35977 3.34094 1.8217 5.21509 0.913451 7.4078C0.00519936 9.60051 -0.232441 12.0133 0.230582 14.3411C0.693605 16.6689 1.83649 18.807 3.51472 20.4853C5.19295 22.1635 7.33115 23.3064 9.65892 23.7694C11.9867 24.2324 14.3995 23.9948 16.5922 23.0866C18.7849 22.1783 20.6591 20.6402 21.9776 18.6668C23.2962 16.6934 24 14.3734 24 12C24 8.8174 22.7357 5.76515 20.4853 3.51472C18.2348 1.26428 15.1826 0 12 0V0ZM20.6954 17.2492C19.4278 19.3515 17.4415 20.9233 15.1042 21.6738C12.7669 22.4242 10.2368 22.3026 7.98232 21.3312C5.72783 20.3599 3.90156 18.6047 2.84156 16.3905C1.78156 14.1763 1.55959 11.6531 2.21676 9.28785C2.87392 6.92261 4.36571 4.87553 6.41601 3.52551C8.4663 2.1755 10.9363 1.61398 13.3687 1.94487C15.8011 2.27577 18.0313 3.47669 19.6465 5.32533C21.2616 7.17397 22.1524 9.54516 22.1538 12C22.1581 13.8504 21.6536 15.6663 20.6954 17.2492V17.2492Z" fill="white"/>
<path d="M18.7338 10.8876C18.5615 9.67267 18.0704 8.52554 17.3108 7.56388L18.4928 6.37754C18.6815 6.18858 18.7877 5.93211 18.788 5.66457C18.7883 5.39702 18.6827 5.14031 18.4944 4.95091C18.3062 4.7615 18.0507 4.65492 17.7841 4.6546C17.5175 4.65429 17.2618 4.76027 17.0731 4.94923L15.8576 6.18261C14.9717 5.5592 13.9519 5.15394 12.8809 4.99964V4.00822C12.8809 3.74082 12.7751 3.48438 12.5867 3.2953C12.3984 3.10622 12.1429 3 11.8764 3C11.61 3 11.3545 3.10622 11.1662 3.2953C10.9778 3.48438 10.8719 3.74082 10.8719 4.00822V4.99964C9.80271 5.1459 8.7829 5.54313 7.89527 6.15909L6.67648 4.94923C6.48777 4.76027 6.232 4.65429 5.96544 4.6546C5.69889 4.65492 5.44337 4.7615 5.25511 4.95091C5.06684 5.14031 4.96125 5.39702 4.96157 5.66457C4.96188 5.93211 5.06807 6.18858 5.25678 6.37754L6.42535 7.55043C5.66067 8.51524 5.166 9.66718 4.99226 10.8876H4.0045C3.73809 10.8876 3.48259 10.9939 3.29421 11.1829C3.10583 11.372 3 11.6285 3 11.8959C3 12.1633 3.10583 12.4197 3.29421 12.6088C3.48259 12.7979 3.73809 12.9041 4.0045 12.9041H4.99226C5.16112 14.0673 5.62202 15.1683 6.3316 16.1035L5.26013 17.1453C5.15644 17.2348 5.07206 17.3447 5.01215 17.4681C4.95224 17.5915 4.91807 17.7258 4.91173 17.863C4.90539 18.0001 4.92701 18.1371 4.97527 18.2655C5.02353 18.3939 5.09742 18.5111 5.1924 18.6099C5.28737 18.7087 5.40145 18.7869 5.52762 18.8399C5.6538 18.8928 5.78942 18.9194 5.92617 18.9179C6.06293 18.9164 6.19793 18.8868 6.32292 18.8311C6.44791 18.7754 6.56024 18.6946 6.65304 18.5938L7.75799 17.5184C8.67165 18.192 9.73652 18.6294 10.8586 18.7921V19.5718C10.8586 19.8392 10.9644 20.0956 11.1528 20.2847C11.3411 20.4738 11.5966 20.58 11.8631 20.58C12.1295 20.58 12.385 20.4738 12.5733 20.2847C12.7617 20.0956 12.8676 19.8392 12.8676 19.5718V18.7921C13.9965 18.6295 15.0675 18.1884 15.9849 17.5083L17.0731 18.5938C17.2614 18.7826 17.5167 18.8887 17.7829 18.8887C18.0491 18.8887 18.3044 18.7826 18.4928 18.5938C18.6809 18.4048 18.7865 18.1485 18.7865 17.8813C18.7865 17.6141 18.6809 17.3579 18.4928 17.1689L17.4146 16.0867C18.1138 15.1527 18.5675 14.057 18.7338 12.9007H19.8455C20.1119 12.9007 20.3674 12.7945 20.5558 12.6054C20.7442 12.4163 20.85 12.1599 20.85 11.8925C20.85 11.6251 20.7442 11.3687 20.5558 11.1796C20.3674 10.9905 20.1119 10.8843 19.8455 10.8843H18.7338V10.8876ZM15.3587 15.4045C14.4443 16.3214 13.2084 16.8423 11.9159 16.8555C10.6234 16.8687 9.37718 16.3732 8.4444 15.475C8.4444 15.475 8.4444 15.475 8.4444 15.475C8.42364 15.4542 8.40125 15.4351 8.37743 15.4179C7.68589 14.7237 7.21497 13.8392 7.02423 12.8763C6.83349 11.9135 6.93148 10.9155 7.30582 10.0085C7.68017 9.10157 8.31404 8.32639 9.1273 7.781C9.94057 7.23561 10.8967 6.94452 11.8748 6.94452C12.8529 6.94452 13.809 7.23561 14.6222 7.781C15.4355 8.32639 16.0694 9.10157 16.4437 10.0085C16.8181 10.9155 16.9161 11.9135 16.7253 12.8763C16.5346 13.8392 16.0637 14.7237 15.3721 15.4179L15.3587 15.4045Z" fill="white"/>
</g>
<defs>
<clipPath id="clip0_135_452">
<rect width="24" height="24" fill="white"/>
</clipPath>
</defs>
</svg>
