<svg width="644" height="31" viewBox="0 0 644 31" fill="none" xmlns="http://www.w3.org/2000/svg">
<path d="M5.6 30L0.84 8.48H7L10.96 27H7.76L19.16 8.48H25.4L12.04 30H5.6ZM32.8003 30.32C31.147 30.32 29.6136 29.9467 28.2003 29.2C26.787 28.4267 25.6536 27.32 24.8003 25.88C23.947 24.44 23.5203 22.7067 23.5203 20.68C23.5203 18.8667 23.8136 17.2 24.4003 15.68C25.0136 14.16 25.867 12.84 26.9603 11.72C28.0536 10.6 29.3203 9.73333 30.7603 9.12C32.2003 8.48 33.747 8.16 35.4003 8.16C37.187 8.16 38.7203 8.49333 40.0003 9.16C41.2803 9.82667 42.227 10.8667 42.8403 12.28C43.4803 13.6667 43.707 15.4667 43.5203 17.68C43.387 20.2133 42.867 22.44 41.9603 24.36C41.0536 26.2533 39.827 27.72 38.2803 28.76C36.7603 29.8 34.9336 30.32 32.8003 30.32ZM34.7203 25.16C35.947 25.16 37.027 24.8667 37.9603 24.28C38.9203 23.6667 39.667 22.84 40.2003 21.8C40.7603 20.7333 41.0403 19.4933 41.0403 18.08C41.0403 16.6133 40.6003 15.4533 39.7203 14.6C38.867 13.7467 37.667 13.32 36.1203 13.32C34.9203 13.32 33.8403 13.6267 32.8803 14.24C31.9203 14.8267 31.1603 15.6533 30.6003 16.72C30.067 17.76 29.8003 18.9867 29.8003 20.4C29.8003 21.8667 30.227 23.0267 31.0803 23.88C31.9603 24.7333 33.1736 25.16 34.7203 25.16ZM39.0003 30L39.8403 25.72L41.2403 19.32L42.0803 12.92L42.9603 8.48H49.2003L44.9203 30H39.0003ZM50.6975 30L54.9775 8.48H60.8975L59.6575 14.6L59.0975 12.84C60.0575 11.1067 61.3108 9.89333 62.8575 9.2C64.4042 8.50667 66.2575 8.16 68.4175 8.16L67.2975 13.92C67.0308 13.8933 66.7775 13.88 66.5375 13.88C66.3242 13.8533 66.0975 13.84 65.8575 13.84C64.0175 13.84 62.5108 14.2933 61.3375 15.2C60.1908 16.1067 59.4175 17.5733 59.0175 19.6L56.9375 30H50.6975Z" fill="#620495"/>
<path d="M94.4522 8.16C96.1589 8.16 97.6789 8.50667 99.0122 9.2C100.372 9.86667 101.439 10.9067 102.212 12.32C102.986 13.7067 103.372 15.4933 103.372 17.68V30H97.1322V18.64C97.1322 16.9067 96.7455 15.6267 95.9722 14.8C95.2255 13.9733 94.1589 13.56 92.7722 13.56C91.7855 13.56 90.8922 13.7733 90.0922 14.2C89.3189 14.6 88.7055 15.2267 88.2522 16.08C87.8255 16.9333 87.6122 18.0267 87.6122 19.36V30H81.3722V8.48H87.3322V14.44L86.2122 12.64C86.9855 11.2 88.0922 10.0933 89.5322 9.32C90.9722 8.54667 92.6122 8.16 94.4522 8.16ZM119.425 30.32C117.131 30.32 115.091 29.84 113.305 28.88C111.545 27.92 110.145 26.6133 109.105 24.96C108.091 23.28 107.585 21.3733 107.585 19.24C107.585 17.08 108.091 15.1733 109.105 13.52C110.145 11.84 111.545 10.5333 113.305 9.6C115.091 8.64 117.131 8.16 119.425 8.16C121.691 8.16 123.718 8.64 125.505 9.6C127.291 10.5333 128.691 11.8267 129.705 13.48C130.718 15.1333 131.225 17.0533 131.225 19.24C131.225 21.3733 130.718 23.28 129.705 24.96C128.691 26.6133 127.291 27.92 125.505 28.88C123.718 29.84 121.691 30.32 119.425 30.32ZM119.425 25.2C120.465 25.2 121.398 24.96 122.225 24.48C123.051 24 123.705 23.32 124.185 22.44C124.665 21.5333 124.905 20.4667 124.905 19.24C124.905 17.9867 124.665 16.92 124.185 16.04C123.705 15.16 123.051 14.48 122.225 14C121.398 13.52 120.465 13.28 119.425 13.28C118.385 13.28 117.451 13.52 116.625 14C115.798 14.48 115.131 15.16 114.625 16.04C114.145 16.92 113.905 17.9867 113.905 19.24C113.905 20.4667 114.145 21.5333 114.625 22.44C115.131 23.32 115.798 24 116.625 24.48C117.451 24.96 118.385 25.2 119.425 25.2ZM162.956 8.16C164.662 8.16 166.169 8.50667 167.476 9.2C168.809 9.86667 169.849 10.9067 170.596 12.32C171.369 13.7067 171.756 15.4933 171.756 17.68V30H165.516V18.64C165.516 16.9067 165.156 15.6267 164.436 14.8C163.716 13.9733 162.702 13.56 161.396 13.56C160.489 13.56 159.676 13.7733 158.956 14.2C158.236 14.6 157.676 15.2133 157.276 16.04C156.876 16.8667 156.676 17.92 156.676 19.2V30H150.436V18.64C150.436 16.9067 150.076 15.6267 149.356 14.8C148.662 13.9733 147.662 13.56 146.356 13.56C145.449 13.56 144.636 13.7733 143.916 14.2C143.196 14.6 142.636 15.2133 142.236 16.04C141.836 16.8667 141.636 17.92 141.636 19.2V30H135.396V8.48H141.356V14.36L140.236 12.64C140.982 11.1733 142.036 10.0667 143.396 9.32C144.782 8.54667 146.356 8.16 148.116 8.16C150.089 8.16 151.809 8.66667 153.276 9.68C154.769 10.6667 155.756 12.1867 156.236 14.24L154.036 13.64C154.756 11.96 155.902 10.6267 157.476 9.64C159.076 8.65333 160.902 8.16 162.956 8.16ZM188.185 30.32C185.732 30.32 183.572 29.84 181.705 28.88C179.865 27.92 178.438 26.6133 177.425 24.96C176.412 23.28 175.905 21.3733 175.905 19.24C175.905 17.08 176.398 15.1733 177.385 13.52C178.398 11.84 179.772 10.5333 181.505 9.6C183.238 8.64 185.198 8.16 187.385 8.16C189.492 8.16 191.385 8.61333 193.065 9.52C194.772 10.4 196.118 11.68 197.105 13.36C198.092 15.0133 198.585 17 198.585 19.32C198.585 19.56 198.572 19.84 198.545 20.16C198.518 20.4533 198.492 20.7333 198.465 21H180.985V17.36H195.185L192.785 18.44C192.785 17.32 192.558 16.3467 192.105 15.52C191.652 14.6933 191.025 14.0533 190.225 13.6C189.425 13.12 188.492 12.88 187.425 12.88C186.358 12.88 185.412 13.12 184.585 13.6C183.785 14.0533 183.158 14.7067 182.705 15.56C182.252 16.3867 182.025 17.3733 182.025 18.52V19.48C182.025 20.6533 182.278 21.6933 182.785 22.6C183.318 23.48 184.052 24.16 184.985 24.64C185.945 25.0933 187.065 25.32 188.345 25.32C189.492 25.32 190.492 25.1467 191.345 24.8C192.225 24.4533 193.025 23.9333 193.745 23.24L197.065 26.84C196.078 27.96 194.838 28.8267 193.345 29.44C191.852 30.0267 190.132 30.32 188.185 30.32Z" fill="#A407F8"/>
<path d="M202.339 13.48V8.6H221.379V13.48H202.339ZM202.339 23.4V18.52H221.379V23.4H202.339Z" fill="#8CFFF8"/>
<path d="M225.605 13.6L228.245 4L229.125 7.64C227.978 7.64 227.031 7.30667 226.285 6.64C225.565 5.94667 225.205 5.01333 225.205 3.84C225.205 2.69333 225.578 1.77333 226.325 1.08C227.071 0.359998 227.991 -2.38419e-06 229.085 -2.38419e-06C230.205 -2.38419e-06 231.125 0.359998 231.845 1.08C232.565 1.77333 232.925 2.69333 232.925 3.84C232.925 4.18667 232.898 4.53333 232.845 4.88C232.818 5.2 232.725 5.58666 232.565 6.04C232.431 6.49333 232.205 7.09333 231.885 7.84L229.565 13.6H225.605ZM635.761 13.6L638.401 4L639.281 7.64C638.134 7.64 637.188 7.30667 636.441 6.64C635.721 5.94667 635.361 5.01333 635.361 3.84C635.361 2.69333 635.734 1.77333 636.481 1.08C637.228 0.359998 638.148 -2.38419e-06 639.241 -2.38419e-06C640.361 -2.38419e-06 641.281 0.359998 642.001 1.08C642.721 1.77333 643.081 2.69333 643.081 3.84C643.081 4.18667 643.054 4.53333 643.001 4.88C642.974 5.2 642.881 5.58666 642.721 6.04C642.588 6.49333 642.361 7.09333 642.041 7.84L639.721 13.6H635.761Z" fill="#8CFFF8"/>
<path d="M256.793 2H263.273V30H256.793V2ZM244.073 30H237.593V2H244.073V30ZM257.273 18.52H243.593V13.04H257.273V18.52ZM275.858 13.28H289.338V18.32H275.858V13.28ZM276.338 24.8H291.578V30H269.898V2H291.058V7.2H276.338V24.8ZM296.734 30V2H308.854C311.361 2 313.521 2.41333 315.334 3.24C317.147 4.04 318.547 5.2 319.534 6.72C320.521 8.24 321.014 10.0533 321.014 12.16C321.014 14.24 320.521 16.04 319.534 17.56C318.547 19.0533 317.147 20.2 315.334 21C313.521 21.8 311.361 22.2 308.854 22.2H300.334L303.214 19.36V30H296.734ZM314.534 30L307.534 19.84H314.454L321.534 30H314.534ZM303.214 20.08L300.334 17.04H308.494C310.494 17.04 311.987 16.6133 312.974 15.76C313.961 14.88 314.454 13.68 314.454 12.16C314.454 10.6133 313.961 9.41333 312.974 8.56C311.987 7.70667 310.494 7.28 308.494 7.28H300.334L303.214 4.2V20.08ZM326.148 30V2H339.828C343.348 2 345.988 2.66666 347.748 4C349.535 5.33333 350.428 7.09333 350.428 9.28C350.428 10.7467 350.068 12.0267 349.348 13.12C348.628 14.1867 347.641 15.0133 346.388 15.6C345.135 16.1867 343.695 16.48 342.068 16.48L342.828 14.84C344.588 14.84 346.148 15.1333 347.508 15.72C348.868 16.28 349.921 17.12 350.668 18.24C351.441 19.36 351.828 20.7333 351.828 22.36C351.828 24.76 350.881 26.64 348.988 28C347.095 29.3333 344.308 30 340.628 30H326.148ZM332.588 25.12H340.148C341.828 25.12 343.095 24.8533 343.948 24.32C344.828 23.76 345.268 22.88 345.268 21.68C345.268 20.5067 344.828 19.64 343.948 19.08C343.095 18.4933 341.828 18.2 340.148 18.2H332.108V13.48H339.028C340.601 13.48 341.801 13.2133 342.628 12.68C343.481 12.12 343.908 11.28 343.908 10.16C343.908 9.06667 343.481 8.25333 342.628 7.72C341.801 7.16 340.601 6.88 339.028 6.88H332.588V25.12ZM362.694 13.28H376.174V18.32H362.694V13.28ZM363.174 24.8H378.414V30H356.734V2H377.894V7.2H363.174V24.8ZM383.57 30V2H395.69C398.197 2 400.357 2.41333 402.17 3.24C403.983 4.04 405.383 5.2 406.37 6.72C407.357 8.24 407.85 10.0533 407.85 12.16C407.85 14.24 407.357 16.04 406.37 17.56C405.383 19.0533 403.983 20.2 402.17 21C400.357 21.8 398.197 22.2 395.69 22.2H387.17L390.05 19.36V30H383.57ZM401.37 30L394.37 19.84H401.29L408.37 30H401.37ZM390.05 20.08L387.17 17.04H395.33C397.33 17.04 398.823 16.6133 399.81 15.76C400.797 14.88 401.29 13.68 401.29 12.16C401.29 10.6133 400.797 9.41333 399.81 8.56C398.823 7.70667 397.33 7.28 395.33 7.28H387.17L390.05 4.2V20.08ZM418.393 30V7.28H409.433V2H433.833V7.28H424.873V30H418.393ZM462.168 30.48C459.955 30.48 457.915 30.1333 456.048 29.44C454.208 28.72 452.595 27.7067 451.208 26.4C449.848 25.0933 448.781 23.56 448.008 21.8C447.261 20.04 446.888 18.1067 446.888 16C446.888 13.8933 447.261 11.96 448.008 10.2C448.781 8.44 449.861 6.90667 451.248 5.6C452.635 4.29333 454.261 3.29333 456.128 2.6C457.995 1.88 460.048 1.52 462.288 1.52C464.768 1.52 466.995 1.93333 468.968 2.76C470.968 3.58666 472.648 4.78667 474.008 6.36L469.848 10.2C468.835 9.13333 467.728 8.34667 466.528 7.84C465.328 7.30667 464.021 7.04 462.608 7.04C461.248 7.04 460.008 7.25333 458.888 7.68C457.768 8.10666 456.795 8.72 455.968 9.52C455.168 10.32 454.541 11.2667 454.088 12.36C453.661 13.4533 453.448 14.6667 453.448 16C453.448 17.3067 453.661 18.5067 454.088 19.6C454.541 20.6933 455.168 21.6533 455.968 22.48C456.795 23.28 457.755 23.8933 458.848 24.32C459.968 24.7467 461.195 24.96 462.528 24.96C463.808 24.96 465.048 24.76 466.248 24.36C467.475 23.9333 468.661 23.2267 469.808 22.24L473.488 26.92C471.968 28.0667 470.195 28.9467 468.168 29.56C466.168 30.1733 464.168 30.48 462.168 30.48ZM467.568 26.08V15.56H473.488V26.92L467.568 26.08ZM491.948 30.48C487.974 30.48 484.868 29.3733 482.628 27.16C480.388 24.9467 479.268 21.7867 479.268 17.68V2H485.748V17.44C485.748 20.1067 486.294 22.0267 487.388 23.2C488.481 24.3733 490.014 24.96 491.988 24.96C493.961 24.96 495.494 24.3733 496.588 23.2C497.681 22.0267 498.227 20.1067 498.227 17.44V2H504.628V17.68C504.628 21.7867 503.508 24.9467 501.268 27.16C499.028 29.3733 495.921 30.48 491.948 30.48ZM506.765 30L519.245 2H525.645L538.165 30H531.365L521.125 5.28H523.685L513.405 30H506.765ZM513.005 24L514.725 19.08H529.125L530.885 24H513.005ZM541.07 30V2H553.19C555.697 2 557.857 2.41333 559.67 3.24C561.483 4.04 562.883 5.2 563.87 6.72C564.857 8.24 565.35 10.0533 565.35 12.16C565.35 14.24 564.857 16.04 563.87 17.56C562.883 19.0533 561.483 20.2 559.67 21C557.857 21.8 555.697 22.2 553.19 22.2H544.67L547.55 19.36V30H541.07ZM558.87 30L551.87 19.84H558.79L565.87 30H558.87ZM547.55 20.08L544.67 17.04H552.83C554.83 17.04 556.323 16.6133 557.31 15.76C558.297 14.88 558.79 13.68 558.79 12.16C558.79 10.6133 558.297 9.41333 557.31 8.56C556.323 7.70667 554.83 7.28 552.83 7.28H544.67L547.55 4.2V20.08ZM576.444 13.28H589.924V18.32H576.444V13.28ZM576.924 24.8H592.164V30H570.484V2H591.644V7.2H576.924V24.8ZM595.52 30V25.8L612.84 4.92L613.64 7.28H595.84V2H619.4V6.2L602.12 27.08L601.32 24.72H620V30H595.52ZM624.156 30V2H630.636V30H624.156Z" fill="#17B363"/>
</svg>
