<svg width="30" height="30" viewBox="0 0 30 30" fill="none" xmlns="http://www.w3.org/2000/svg">
<path d="M15 2.8125C12.5895 2.8125 10.2332 3.52728 8.22899 4.86646C6.22477 6.20564 4.66267 8.10907 3.74022 10.336C2.81778 12.563 2.57643 15.0135 3.04668 17.3777C3.51694 19.7418 4.67769 21.9134 6.38214 23.6179C8.08659 25.3223 10.2582 26.4831 12.6223 26.9533C14.9865 27.4236 17.437 27.1822 19.664 26.2598C21.8909 25.3373 23.7944 23.7752 25.1335 21.771C26.4727 19.7668 27.1875 17.4105 27.1875 15C27.1875 11.7677 25.9035 8.66774 23.6179 6.38214C21.3323 4.09654 18.2323 2.8125 15 2.8125ZM23.8313 20.3312C22.5438 22.4663 20.5265 24.0627 18.1527 24.8249C15.7789 25.5871 13.2093 25.4635 10.9195 24.477C8.62983 23.4905 6.77503 21.7079 5.69846 19.4591C4.62189 17.2103 4.39646 14.6477 5.0639 12.2455C5.73133 9.84327 7.24643 7.76421 9.32876 6.3931C11.4111 5.022 13.9196 4.4517 16.3901 4.78776C18.8605 5.12383 21.1256 6.34351 22.766 8.22104C24.4064 10.0986 25.311 12.5068 25.3125 15C25.3168 16.8793 24.8044 18.7236 23.8313 20.3312Z" fill="#BFBFBF"/>
<path d="M21.2998 17.4406C19.7932 17.9581 18.1442 17.868 16.703 17.1895C15.2618 16.5109 14.1419 15.2972 13.581 13.8062C13.2594 12.9381 13.1411 12.0078 13.2354 11.0868C13.3296 10.1658 13.6339 9.27871 14.1248 8.49375C14.1237 8.4844 14.1237 8.47497 14.1248 8.46562C14.2225 8.29928 14.2666 8.10683 14.2509 7.91452C14.2353 7.72222 14.1606 7.53943 14.0373 7.3911C13.9139 7.24276 13.7477 7.13611 13.5615 7.08569C13.3753 7.03527 13.178 7.04354 12.9966 7.10937C11.9861 7.46655 11.0578 8.02378 10.2675 8.74776C9.47707 9.47175 8.84074 10.3476 8.39648 11.3231C7.95222 12.2985 7.70915 13.3535 7.6818 14.425C7.65444 15.4965 7.84336 16.5625 8.23727 17.5594C8.83713 19.0436 9.86688 20.3147 11.1943 21.2095C12.5218 22.1043 14.0864 22.582 15.6873 22.5812C16.6074 22.5819 17.5204 22.4201 18.3841 22.1031C20.055 21.495 21.472 20.3411 22.406 18.8281C22.5114 18.6633 22.5626 18.4696 22.5524 18.2743C22.5422 18.0789 22.4711 17.8916 22.3492 17.7387C22.2272 17.5857 22.0605 17.4747 21.8723 17.4213C21.6841 17.3678 21.4839 17.3746 21.2998 17.4406ZM17.7404 20.3437C16.2494 20.8795 14.609 20.8175 13.1626 20.171C11.7163 19.5244 10.5761 18.3433 9.98102 16.875C9.6751 16.1123 9.52785 15.2952 9.54827 14.4737C9.56868 13.6522 9.75634 12.8434 10.0998 12.0969C10.4281 11.3743 10.8941 10.7226 11.4716 10.1781C11.191 11.6112 11.3122 13.094 11.8216 14.4625C12.3814 15.9523 13.3724 17.2415 14.6682 18.1655C15.964 19.0895 17.5058 19.6063 19.0966 19.65C18.6756 19.9374 18.2199 20.1705 17.7404 20.3437Z" fill="#BFBFBF"/>
</svg>
