<svg width="45" height="41" viewBox="0 0 45 41" fill="none" xmlns="http://www.w3.org/2000/svg">
<path d="M41.5348 5.06665H3.46519C1.55696 5.06665 0 6.46792 0 8.18532V32.3144C0 34.0318 1.55696 35.4331 3.46519 35.4331H41.5348C43.443 35.4331 45 34.0318 45 32.3144V8.18532C45 6.46792 43.443 5.06665 41.5348 5.06665ZM41.0316 7.37361L22.7373 21.4546L4.44304 7.37361H41.0316ZM42.4367 32.3144C42.4367 32.7587 42.0285 33.1261 41.5348 33.1261H3.46519C2.97152 33.1261 2.56329 32.7587 2.56329 32.3144V8.96285L21.9019 23.847C21.9114 23.8556 21.9304 23.8641 21.9399 23.8727C21.9494 23.8812 21.9684 23.8897 21.9778 23.8983C22.0063 23.9154 22.0253 23.9325 22.0538 23.941C22.0633 23.9496 22.0728 23.9496 22.0823 23.9581C22.1203 23.9752 22.1582 23.9923 22.1962 24.0094C22.2057 24.0094 22.2152 24.0179 22.2247 24.0179C22.2532 24.0265 22.2816 24.0435 22.3196 24.0521C22.3291 24.0521 22.3481 24.0606 22.3576 24.0606C22.3861 24.0692 22.4146 24.0777 22.443 24.0777C22.4525 24.0777 22.4715 24.0863 22.481 24.0863C22.5095 24.0948 22.5475 24.0948 22.5759 24.1034C22.5854 24.1034 22.5949 24.1034 22.6044 24.1034C22.6424 24.1034 22.6899 24.1119 22.7278 24.1119C22.7658 24.1119 22.8133 24.1119 22.8513 24.1034C22.8608 24.1034 22.8703 24.1034 22.8797 24.1034C22.9082 24.1034 22.9462 24.0948 22.9747 24.0863C22.9842 24.0863 23.0032 24.0777 23.0127 24.0777C23.0411 24.0692 23.0696 24.0606 23.0981 24.0606C23.1076 24.0606 23.1266 24.0521 23.1361 24.0521C23.1646 24.0435 23.193 24.035 23.231 24.0179C23.2405 24.0179 23.25 24.0094 23.2595 24.0094C23.2975 23.9923 23.3354 23.9752 23.3734 23.9581C23.3829 23.9496 23.3924 23.9496 23.4019 23.941C23.4304 23.9239 23.4494 23.9154 23.4778 23.8983C23.4873 23.8897 23.5063 23.8812 23.5158 23.8727C23.5253 23.8641 23.5443 23.8556 23.5538 23.847L42.4367 9.33026V32.3144Z" fill="#00B256"/>
</svg>
