<svg width="45" height="45" viewBox="0 0 45 45" fill="none" xmlns="http://www.w3.org/2000/svg">
<g clip-path="url(#clip0_132_382)">
<path d="M22.5 0.556826C10.0702 0.556826 0 10.6354 0 23.0568C0 33.0032 6.44625 41.4337 15.3802 44.4079C16.5094 44.6203 16.9172 43.9242 16.9172 43.3223C16.9172 42.7879 16.9045 41.3746 16.8961 39.4987C10.6341 40.8543 9.315 36.4739 9.315 36.4739C8.28984 33.8807 6.81047 33.1846 6.81047 33.1846C4.77422 31.7939 6.97219 31.8234 6.97219 31.8234C9.22781 31.9767 10.4147 34.1367 10.4147 34.1367C12.4214 37.5792 15.6797 36.5835 16.9692 36.0042C17.1661 34.5543 17.7525 33.5573 18.3909 33.0018C13.3959 32.4379 8.14359 30.5043 8.14359 21.8826C8.14359 19.4203 9.01547 17.415 10.4569 15.84C10.208 15.276 9.44578 12.9839 10.6552 9.88448C10.6552 9.88448 12.5381 9.28401 16.8427 12.1921C18.6441 11.6929 20.5566 11.444 22.4677 11.4314C24.3802 11.444 26.2912 11.6943 28.0927 12.1921C32.3719 9.28401 34.2534 9.88448 34.2534 9.88448C35.4614 12.9839 34.6992 15.2746 34.4798 15.84C35.9072 17.415 36.7791 19.4217 36.7791 21.8826C36.7791 30.524 31.5197 32.4295 26.5191 32.9793C27.3009 33.6529 28.0336 35.0381 28.0336 37.1404C28.0336 40.1498 28.0055 42.5742 28.0055 43.3068C28.0055 43.8918 28.3992 44.595 29.558 44.3685C38.558 41.4253 44.9972 32.9878 44.9972 23.0554C44.9972 10.634 34.927 0.55542 22.4972 0.55542L22.5 0.556826Z" fill="#00B256"/>
</g>
<defs>
<clipPath id="clip0_132_382">
<rect width="45" height="45" fill="white"/>
</clipPath>
</defs>
</svg>
